<svg width="24" height="24" viewBox="0 0 24 24" fill="none" xmlns="http://www.w3.org/2000/svg">
<path d="M5.88574 17.833C8.03315 18.2416 12.8408 19.2714 14.8955 20.1211C16.9499 20.9708 17.2946 21.7276 17.21 22C16.797 21.5914 13.9036 21.3467 11.1758 21.3467C9.19211 21.3467 6.46481 19.086 5.88574 17.833ZM2.99219 1C4.48011 5.90262 6.46379 6.57509 8.36523 8.02734C10.184 9.41637 13.0027 10.7797 15.8047 13.7471C18.1194 16.1984 20.7643 20.3658 22.0869 22H17.8711C17.5129 21.1557 16.3502 19.1567 14.8955 17.5879C12.6981 15.2183 9.93603 14.1553 8.36523 13.1748C6.03886 11.7226 3.40545 9.74311 2.49609 6.22949C1.93877 4.07604 2.7442 1.87159 2.99219 1ZM2 9.33496C2.49602 10.2339 3.90195 12.1126 5.6377 13.1748C7.70471 14.4396 11.1748 15.8719 12.167 16.3623C13.9031 17.2204 15.1438 18.9768 15.6396 19.7939C15.0886 19.5216 13.3086 18.7645 12.5811 18.5684C11.0931 18.1672 8.53024 17.9965 6.38086 17.3428C2.54858 15.9132 2.06897 11.482 2.00879 9.84766L2 9.33496ZM12.9941 2.22559C15.4405 2.22563 18.3489 2.85028 19.8545 4.51367C21.1977 5.99787 21.8388 8.43605 21.5908 10.3154C21.1187 13.892 17.9043 15.3657 17.8711 15.3809L15.8047 12.9297C15.8297 12.914 17.378 11.9403 17.7061 10.8057C18.0839 9.49827 17.8713 8.2719 17.21 7.12793C16.5853 6.04768 15.1437 5.41237 14.6475 5.41211H8.86035C7.56516 5.41197 4.97559 4.77471 4.97559 2.22559H12.9941Z" fill="#828282"/>
</svg>
