<svg width="17" height="57" viewBox="0 0 17 57" fill="none" xmlns="http://www.w3.org/2000/svg">
<path d="M1.00005 2.00683C0.99663 1.77427 1.15668 1.56362 1.39263 1.51171C1.62874 1.45993 1.86281 1.58415 1.95708 1.79687L1.98833 1.89257L1.98833 1.89453C1.98865 1.89595 1.98959 1.89825 1.99029 1.90136C1.99173 1.9078 1.99406 1.91822 1.99712 1.93164C2.00324 1.95846 2.01269 1.99899 2.02544 2.05273C2.05104 2.16059 2.09071 2.32151 2.14458 2.53125C2.25238 2.95089 2.41795 3.56637 2.65142 4.34179C3.11842 5.89283 3.8537 8.08512 4.9229 10.6436C7.06272 15.7638 10.5357 22.3332 15.8692 28.1621C16.044 28.3532 16.044 28.6468 15.8692 28.8379C10.5357 34.6668 7.06272 41.2362 4.92291 46.3564C3.8537 48.9149 3.11842 51.1072 2.65142 52.6582C2.41796 53.4336 2.25239 54.0491 2.14458 54.4687C2.09071 54.6785 2.05105 54.8394 2.02544 54.9473C2.01269 55.001 2.00325 55.0415 1.99712 55.0684C1.99406 55.0818 1.99173 55.0922 1.99029 55.0986C1.98959 55.1017 1.98865 55.104 1.98834 55.1055L1.98834 55.1074L1.95709 55.2031C1.86281 55.4158 1.62874 55.5401 1.39263 55.4883C1.12308 55.429 0.952636 55.1622 1.01177 54.8926L1.01177 54.8916L1.01275 54.8896C1.01322 54.8875 1.01383 54.8838 1.0147 54.8799C1.01645 54.8721 1.01917 54.8603 1.02251 54.8457C1.02927 54.8161 1.03938 54.7723 1.05279 54.7158C1.07976 54.6022 1.12043 54.4354 1.17584 54.2197C1.28678 53.7878 1.4567 53.1596 1.69439 52.3701C2.1697 50.7914 2.91552 48.5658 4.00005 45.9707C6.12702 40.8812 9.56349 34.3552 14.8262 28.5C9.56349 22.6448 6.12702 16.1188 4.00005 11.0293C2.91552 8.43419 2.1697 6.20855 1.69439 4.62988C1.4567 3.84043 1.28678 3.21217 1.17583 2.78027C1.12043 2.5646 1.07976 2.3978 1.05279 2.28418C1.03937 2.22768 1.02927 2.18391 1.02251 2.15429C1.01917 2.13965 1.01645 2.12791 1.0147 2.12011C1.01383 2.11621 1.01322 2.11248 1.01275 2.11035L1.01177 2.10839L1.01177 2.10742L1.00005 2.00683Z" fill="#E6E6E6"/>
<path d="M2.46875 55.2432C2.47128 55.2346 2.47528 55.2225 2.47852 55.208L2.48437 55.1797L2.51172 55.0625L2.62891 54.5928L2.83301 53.8301C2.91609 53.5303 3.01439 53.1863 3.12988 52.8027L3.31641 52.1963C3.78063 50.7154 4.45495 48.7714 5.38379 46.5488L5.79883 45.5791C7.94831 40.6511 11.2862 34.5879 16.2383 29.1758L16.2998 29.1016C16.5866 28.7209 16.5661 28.1824 16.2383 27.8242L15.748 27.2812C10.7416 21.6459 7.44314 15.3788 5.38379 10.4512L5.00195 9.51562C4.14479 7.37643 3.53484 5.54226 3.12988 4.19727L2.83301 3.16992C2.74987 2.86997 2.6821 2.6143 2.6289 2.40723L2.51172 1.9375L2.48437 1.82031L2.47851 1.79199L2.47168 1.76953C2.4729 1.77426 2.47514 1.77972 2.47656 1.78613L2.47558 1.78711C2.47296 1.77497 2.47032 1.76291 2.46679 1.75098M2.46875 55.2432C2.4691 55.242 2.46935 55.2406 2.46973 55.2393C2.47128 55.2337 2.47411 55.2249 2.47656 55.2139L2.47559 55.2139C2.47294 55.226 2.47035 55.2381 2.4668 55.25M2.46875 55.2432C2.46797 55.2458 2.46738 55.2481 2.4668 55.25M2.46875 55.2432C2.46764 55.247 2.46733 55.2502 2.4668 55.252C2.46641 55.2532 2.46601 55.2543 2.46582 55.2549L2.46484 55.2559M2.4668 55.25C2.46634 55.2515 2.46612 55.253 2.46582 55.2539L2.46484 55.2559M2.4668 55.25C2.46621 55.252 2.46546 55.2539 2.46484 55.2559M2.46484 55.2559L2.46387 55.2627L2.43262 55.3584C2.4274 55.3744 2.42087 55.3899 2.41406 55.4053C2.22521 55.8314 1.75745 56.0801 1.28516 55.9766L1.18652 55.9492C0.706772 55.7914 0.414982 55.2943 0.522461 54.791M0.522461 54.791L0.522461 54.792C0.522688 54.7908 0.523872 54.7889 0.524414 54.7861M0.522461 54.791C0.522852 54.7892 0.523035 54.787 0.523437 54.7852L0.524414 54.7861M0.522461 54.791L0.522461 54.7891C0.522806 54.7874 0.523685 54.7845 0.524414 54.7813M0.524414 54.7861C0.524699 54.7848 0.525095 54.7835 0.525391 54.7822L0.524414 54.7813M0.524414 54.7861C0.524693 54.7847 0.524062 54.783 0.524414 54.7813M0.524414 54.7813L0.526367 54.7705L0.535156 54.7344L0.566406 54.6006L0.691406 54.0957L0.90625 53.2949C0.993206 52.982 1.09594 52.6237 1.21582 52.2256L1.4082 51.5986C1.88815 50.067 2.58349 48.0649 3.53906 45.7783L3.95605 44.8008C6.07663 39.9348 9.3417 33.9519 14.1582 28.5C9.01398 22.6772 5.6397 16.2482 3.53906 11.2217L3.14453 10.2598C2.26262 8.0584 1.63533 6.1677 1.21582 4.77441L0.906248 3.70508C0.819232 3.39191 0.747668 3.12332 0.691404 2.9043L0.566404 2.39941L0.535154 2.26563L0.526365 2.22949L0.524412 2.21875M0.524412 2.21875L0.525388 2.21875C0.52138 2.20108 0.520623 2.18307 0.518552 2.16504L0.514646 2.16504L0.502927 2.06445L0.499998 2.01465C0.493581 1.57851 0.774003 1.18063 1.19824 1.04687L1.28515 1.02344L1.37402 1.00781C1.78588 0.955115 2.18125 1.16368 2.37597 1.5166L2.41406 1.59473C2.42086 1.6101 2.4274 1.62562 2.43261 1.6416L2.46386 1.7373C2.46467 1.73976 2.46408 1.74265 2.46484 1.74512M0.524412 2.21875C0.523677 2.21544 0.522804 2.21264 0.522459 2.21094L0.522459 2.20801C0.522803 2.20982 0.523376 2.21372 0.524412 2.21875ZM2.46484 1.74512L2.46484 1.74414L2.46582 1.74609C2.46618 1.74723 2.46621 1.74909 2.46679 1.75098M2.46484 1.74512C2.46545 1.74709 2.46621 1.749 2.46679 1.75098M2.46484 1.74512L2.46582 1.74512C2.46601 1.74572 2.46641 1.7468 2.46679 1.74805C2.46737 1.74992 2.46752 1.75352 2.46875 1.75781C2.46798 1.7552 2.46739 1.75289 2.46679 1.75098" stroke="black" stroke-opacity="0.4" stroke-linecap="round" stroke-linejoin="round"/>
</svg>
