<svg width="18" height="57" viewBox="0 0 18 57" fill="none" xmlns="http://www.w3.org/2000/svg">
<path d="M16.4999 2.00683C16.5034 1.77427 16.3433 1.56362 16.1074 1.51171C15.8713 1.45993 15.6372 1.58415 15.5429 1.79687L15.5117 1.89257L15.5117 1.89453C15.5114 1.89595 15.5104 1.89825 15.5097 1.90136C15.5083 1.9078 15.5059 1.91822 15.5029 1.93164C15.4968 1.95846 15.4873 1.99899 15.4746 2.05273C15.449 2.16059 15.4093 2.32151 15.3554 2.53125C15.2476 2.95089 15.082 3.56637 14.8486 4.34179C14.3816 5.89283 13.6463 8.08512 12.5771 10.6436C10.4373 15.7638 6.96428 22.3332 1.63081 28.1621C1.45598 28.3532 1.45598 28.6468 1.63081 28.8379C6.96428 34.6668 10.4373 41.2362 12.5771 46.3564C13.6463 48.9149 14.3816 51.1072 14.8486 52.6582C15.082 53.4336 15.2476 54.0491 15.3554 54.4687C15.4093 54.6785 15.449 54.8394 15.4746 54.9473C15.4873 55.001 15.4968 55.0415 15.5029 55.0684C15.5059 55.0818 15.5083 55.0922 15.5097 55.0986C15.5104 55.1017 15.5114 55.104 15.5117 55.1055L15.5117 55.1074L15.5429 55.2031C15.6372 55.4158 15.8713 55.5401 16.1074 55.4883C16.3769 55.429 16.5474 55.1622 16.4882 54.8926L16.4882 54.8916L16.4873 54.8896C16.4868 54.8875 16.4862 54.8838 16.4853 54.8799C16.4836 54.8721 16.4808 54.8603 16.4775 54.8457C16.4707 54.8161 16.4606 54.7723 16.4472 54.7158C16.4202 54.6022 16.3796 54.4354 16.3242 54.2197C16.2132 53.7878 16.0433 53.1596 15.8056 52.3701C15.3303 50.7914 14.5845 48.5658 13.4999 45.9707C11.373 40.8812 7.93651 34.3552 2.67378 28.5C7.93651 22.6448 11.373 16.1188 13.4999 11.0293C14.5845 8.43419 15.3303 6.20855 15.8056 4.62988C16.0433 3.84043 16.2132 3.21217 16.3242 2.78027C16.3796 2.5646 16.4202 2.3978 16.4472 2.28418C16.4606 2.22768 16.4707 2.18391 16.4775 2.15429C16.4808 2.13965 16.4836 2.12791 16.4853 2.12011C16.4862 2.11621 16.4868 2.11248 16.4873 2.11035L16.4882 2.10839L16.4882 2.10742L16.4999 2.00683Z" fill="#353535"/>
<path d="M15.0313 55.2432C15.0287 55.2346 15.0247 55.2225 15.0215 55.208L15.0156 55.1797L14.9883 55.0625L14.8711 54.5928L14.667 53.8301C14.5839 53.5303 14.4856 53.1863 14.3701 52.8027L14.1836 52.1963C13.7194 50.7154 13.045 48.7714 12.1162 46.5488L11.7012 45.5791C9.55169 40.6511 6.21379 34.5879 1.26172 29.1758L1.2002 29.1016C0.913431 28.7209 0.933945 28.1824 1.26172 27.8242L1.75195 27.2812C6.75843 21.6459 10.0569 15.3788 12.1162 10.4512L12.498 9.51562C13.3552 7.37643 13.9652 5.54226 14.3701 4.19727L14.667 3.16992C14.7501 2.86997 14.8179 2.6143 14.8711 2.40723L14.9883 1.9375L15.0156 1.82031L15.0215 1.79199L15.0283 1.76953C15.0271 1.77426 15.0249 1.77972 15.0234 1.78613L15.0244 1.78711C15.027 1.77497 15.0297 1.76291 15.0332 1.75098M15.0313 55.2432C15.0309 55.242 15.0307 55.2406 15.0303 55.2393C15.0287 55.2337 15.0259 55.2249 15.0234 55.2139L15.0244 55.2139C15.0271 55.226 15.0297 55.2381 15.0332 55.25M15.0313 55.2432C15.032 55.2458 15.0326 55.2481 15.0332 55.25M15.0313 55.2432C15.0324 55.247 15.0327 55.2502 15.0332 55.252C15.0336 55.2532 15.034 55.2543 15.0342 55.2549L15.0352 55.2559M15.0332 55.25C15.0337 55.2515 15.0339 55.253 15.0342 55.2539L15.0352 55.2559M15.0332 55.25C15.0338 55.252 15.0345 55.2539 15.0352 55.2559M15.0352 55.2559L15.0361 55.2627L15.0674 55.3584C15.0726 55.3744 15.0791 55.3899 15.0859 55.4053C15.2748 55.8314 15.7425 56.0801 16.2148 55.9766L16.3135 55.9492C16.7932 55.7914 17.085 55.2943 16.9775 54.791M16.9775 54.791L16.9775 54.792C16.9773 54.7908 16.9761 54.7889 16.9756 54.7861M16.9775 54.791C16.9771 54.7892 16.977 54.787 16.9766 54.7852L16.9756 54.7861M16.9775 54.791L16.9775 54.7891C16.9772 54.7874 16.9763 54.7845 16.9756 54.7813M16.9756 54.7861C16.9753 54.7848 16.9749 54.7835 16.9746 54.7822L16.9756 54.7813M16.9756 54.7861C16.9753 54.7847 16.9759 54.783 16.9756 54.7813M16.9756 54.7813L16.9736 54.7705L16.9648 54.7344L16.9336 54.6006L16.8086 54.0957L16.5938 53.2949C16.5068 52.982 16.4041 52.6237 16.2842 52.2256L16.0918 51.5986C15.6118 50.067 14.9165 48.0649 13.9609 45.7783L13.5439 44.8008C11.4234 39.9348 8.1583 33.9519 3.3418 28.5C8.48602 22.6772 11.8603 16.2482 13.9609 11.2217L14.3555 10.2598C15.2374 8.0584 15.8647 6.1677 16.2842 4.77441L16.5938 3.70508C16.6808 3.39191 16.7523 3.12332 16.8086 2.9043L16.9336 2.39941L16.9648 2.26563L16.9736 2.22949L16.9756 2.21875M16.9756 2.21875L16.9746 2.21875C16.9786 2.20108 16.9794 2.18307 16.9814 2.16504L16.9854 2.16504L16.9971 2.06445L17 2.01465C17.0064 1.57851 16.726 1.18063 16.3018 1.04687L16.2148 1.02344L16.126 1.00781C15.7141 0.955115 15.3188 1.16368 15.124 1.5166L15.0859 1.59473C15.0791 1.6101 15.0726 1.62562 15.0674 1.6416L15.0361 1.7373C15.0353 1.73976 15.0359 1.74265 15.0352 1.74512M16.9756 2.21875C16.9763 2.21544 16.9772 2.21264 16.9775 2.21094L16.9775 2.20801C16.9772 2.20982 16.9766 2.21372 16.9756 2.21875ZM15.0352 1.74512L15.0352 1.74414L15.0342 1.74609C15.0338 1.74723 15.0338 1.74909 15.0332 1.75098M15.0352 1.74512C15.0345 1.74709 15.0338 1.749 15.0332 1.75098M15.0352 1.74512L15.0342 1.74512C15.034 1.74572 15.0336 1.7468 15.0332 1.74805C15.0326 1.74992 15.0325 1.75352 15.0313 1.75781C15.032 1.7552 15.0326 1.75289 15.0332 1.75098" stroke="white" stroke-opacity="0.4" stroke-linecap="round" stroke-linejoin="round"/>
</svg>
