<svg width="24" height="24" viewBox="0 0 24 24" fill="none" xmlns="http://www.w3.org/2000/svg">
<path d="M12 2C17.5228 2 22 6.47715 22 12C22 17.5228 17.5228 22 12 22C6.47715 22 2 17.5228 2 12C2 6.47715 6.47715 2 12 2ZM16.3633 15.8828C13.2563 14.0371 9.52894 13.8305 6.69434 14.4756C6.37958 14.5474 6.18226 14.861 6.25391 15.1758C6.32569 15.4905 6.63931 15.6878 6.9541 15.6162C9.55809 15.0236 12.9662 15.2256 15.7656 16.8887C16.0433 17.0535 16.4025 16.9622 16.5674 16.6846C16.7321 16.407 16.6407 16.0478 16.3633 15.8828ZM17.6084 13.0342C13.9081 10.9374 9.64181 10.6966 6.31152 11.4238C5.90133 11.5134 5.64088 11.9189 5.73047 12.3291C5.82006 12.7393 6.22555 12.9988 6.63574 12.9092C9.67055 12.2464 13.5423 12.4778 16.8594 14.3574C17.2246 14.5641 17.6886 14.4355 17.8955 14.0703C18.1022 13.7051 17.9736 13.2411 17.6084 13.0342ZM18.9316 9.78516C14.2688 7.49955 9.75648 7.15214 5.86816 7.98535C5.36288 8.09363 5.04113 8.59139 5.14941 9.09668C5.25772 9.60176 5.75466 9.92345 6.25977 9.81543C9.73969 9.06969 13.8242 9.36568 18.1084 11.4658C18.5724 11.6933 19.1329 11.5011 19.3604 11.0371C19.5876 10.5732 19.3955 10.0126 18.9316 9.78516Z" fill="#828282"/>
</svg>
